<svg xmlns="http://www.w3.org/2000/svg" viewBox="0 0 512 512"><rect width="512" height="512" rx="112" fill="#0f766e"/><circle cx="256" cy="256" r="154" fill="#ecfeff"/><path d="M164 292h184c22 0 40-18 40-40v-30c0-22-18-40-40-40H164c-22 0-40 18-40 40v30c0 22 18 40 40 40Z" fill="#14b8a6"/><path d="M168 210h178c14 0 26 12 26 26s-12 26-26 26H168c-14 0-26-12-26-26s12-26 26-26Z" fill="#fff" opacity=".92"/><text x="256" y="338" text-anchor="middle" font-size="76" font-weight="800" font-family="Arial" fill="#0f766e">م</text></svg>
